<?xml version="1.0" encoding="UTF-8" standalone="no"?>
<!-- Created with Inkscape (http://www.inkscape.org/) -->

<svg
   width="256"
   height="256"
   viewBox="0 0 285.74997 285.74997"
   version="1.1"
   id="svg1"
   xmlns="http://www.w3.org/2000/svg"
   xmlns:svg="http://www.w3.org/2000/svg">
  <defs
     id="defs1" />
  <g
     id="g12"
     transform="matrix(1.2138951,0,0,1.2138951,-42.980159,1.1877767)"
     style="fill:#0f172a;fill-opacity:1">
    <path
       d="m 178.69934,68.657904 -32.17375,-0.0233 -19.01231,96.250316 h 32.1784 z"
       style="fill:#0f172a;fill-opacity:1;stroke-width:1.37319;stroke-linecap:round;stroke-linejoin:bevel;paint-order:stroke fill markers"
       id="path7" />
    <path
       style="fill:#0f172a;fill-opacity:1;stroke-width:1.36011;stroke-linecap:round;stroke-linejoin:bevel;paint-order:stroke fill markers"
       d="m 159.69164,164.8849 c -14.46981,52.9255 -36.01729,70.03903 -76.637398,69.52467 l 6e-6,-26.1888 c 24.103742,-2.03133 34.870942,-8.81346 44.459302,-43.33588"
       id="path3" />
    <rect
       style="fill:#0f172a;fill-opacity:1;stroke-width:0.886809;stroke-linecap:round;stroke-linejoin:bevel;paint-order:stroke fill markers"
       id="rect3"
       width="29.889742"
       height="89.466438"
       x="-112.96078"
       y="-202.175"
       ry="0"
       transform="matrix(0,-1,-0.99999976,-6.9541574e-4,0,0)" />
    <path
       style="fill:#0f172a;fill-opacity:1;stroke-width:1.36011;stroke-linecap:round;stroke-linejoin:bevel;paint-order:stroke fill markers"
       d="M 146.52124,68.657894 C 160.99105,15.732388 182.40957,-1.4817 223.02969,-0.96734705 l 0.12895,26.28936005 c -24.10375,2.031335 -34.87094,8.813457 -44.4593,43.335891"
       id="path8" />
  </g>
  <g
     id="layer2"
     style="display:none">
    <path
       style="display:inline;fill:#000000;stroke-width:1.05833;stroke-linecap:round;stroke-linejoin:bevel;paint-order:stroke fill markers"
       id="path6"
       d="m 205.73597,71.043869 -12.24702,7.070817 -12.24701,7.070816 V 71.043869 56.902236 l 12.24701,7.070817 z"
       transform="matrix(0.89157612,0,0,0.72372408,81.772726,-41.222983)" />
    <path
       d="M 275.56561,0 A 10.193424,10.193424 0 0 1 285.75,10.19317 10.193424,10.193424 0 0 1 275.56561,20.38635 Z"
       style="display:inline;stroke-width:1.13672;stroke-linecap:round;stroke-linejoin:bevel;paint-order:stroke fill markers"
       id="path12" />
  </g>
</svg>
